<svg xmlns="http://www.w3.org/2000/svg" xml:space="preserve" x="0" y="0" style="enable-background:new 0 0 175 26" version="1.1" viewBox="0 0 175 26"><title>Parfois Türkiye Logo</title><path d="M171.9 17.6h-8.1c-3.7-.4-4.9-3.6-4.9-6.8 0-3 1.3-5.8 4.9-6.2h10.3V1.8H164c-4.3 0-7.5 3.2-7.8 7.8-.2 1-.1 1.9 0 2.8.5 4.6 3.3 7.9 7.8 7.9h7.5c.6 0 .6 1.1 0 1.1h-14.6v2.7h15c3.5 0 3.6-6.5 0-6.5zM142.7 1.8h2.7v22.3h-2.7zM120.8 1.3c-6.6 0-12 5.3-12 11.8 0 6.5 5.4 11.8 12 11.8s12-5.3 12-11.8c0-6.6-5.4-11.8-12-11.8zm0 20.8c-5.1 0-9.2-3.8-9.2-9s4.1-9 9.2-9 9.3 3.8 9.3 9c0 5.1-4.2 9-9.3 9zM85.8 24.1V1.8h18v2.7H88.5v13.1h5.9v2.7h-5.9v3.8h-2.7zM17.9 9.6c-.3-4.6-3.5-7.8-7.8-7.8H0v22.3h2.7v-3.8h7.4c4.5 0 7.4-3.3 7.8-7.9.1-.9.2-1.8 0-2.8zm-7.6 8H2.7V4.5h7.6c3.6.4 4.9 3.2 4.9 6.2.1 3.3-1.2 6.5-4.9 6.9zM69.4 19.2c2.7-1.9 4-3.7 4-8.3 0-2.9-.7-5.2-2.2-6.8-.4-.5-1-.9-1.6-1.3 0 0-.1 0-.1-.1-.1-.1-.3-.1-.4-.2H69c-.1 0-.1-.1-.2-.1-1.4-.6-2.8-.7-3.2-.7H55.4V24h2.7v-3.8h3.4c5.4 0 8.2 1.4 10 3.8h3.1c-1-1.6-2.2-3-5.2-4.8zM67.5 17c-1 .4-2 .5-2.6.6h-6.8V4.5H65.2s2.9 0 4.4 2c.8 1 1.1 2.3 1.1 4V12c0 2.4-1.2 4.1-3.2 5zM35.2.9 24.5 24.1h2.7l1.7-3.8h12.7l1.7 3.8H46L35.2.9zm-5.1 16.7 5.1-11.4 5.1 11.4H30.1z" fill="#1d1d1b"/></svg>